<?xml version="1.0" encoding="utf-8"?>
<!-- Generator: Adobe Illustrator 24.1.0, SVG Export Plug-In . SVG Version: 6.00 Build 0)  -->
<svg version="1.0" id="Layer_1" xmlns="http://www.w3.org/2000/svg" xmlns:xlink="http://www.w3.org/1999/xlink" x="0px" y="0px"
	 viewBox="0 0 426.04 94" enable-background="new 0 0 426.04 94" xml:space="preserve">
<g>
	<path fill="#FFFFFF" d="M275.28,52.85h-12.14V34.04c0-0.38-0.31-0.69-0.69-0.69h-7.74c-0.38,0-0.69,0.31-0.69,0.69v25.91
		c0,0.38,0.31,0.69,0.69,0.69h20.57c0.38,0,0.69-0.31,0.69-0.69v-6.42C275.97,53.16,275.66,52.85,275.28,52.85 M363.11,43.69
		c0,1.68-1.33,2.65-3.51,2.65h-3.94V41h3.98c2.11,0,3.47,0.86,3.47,2.61V43.69z M367.25,52.01c-0.23-0.33-0.12-0.79,0.23-0.99
		c2.92-1.64,4.71-4.29,4.71-7.99v-0.08c0-2.81-0.86-4.83-2.5-6.47c-1.91-1.91-4.99-3.12-9.83-3.12h-12.64
		c-0.38,0-0.69,0.31-0.69,0.69v25.91c0,0.38,0.31,0.69,0.69,0.69h7.74c0.38,0,0.69-0.31,0.69-0.69v-7.11h1.95l4.94,7.49
		c0.13,0.19,0.34,0.31,0.58,0.31h8.73c0.56,0,0.88-0.62,0.57-1.08L367.25,52.01z M335.04,47.08c0,3.2-2.18,6.08-5.65,6.08
		c-3.51,0-5.73-2.92-5.73-6.16v-0.08c0-3.2,2.18-6.08,5.65-6.08c3.51,0,5.73,2.92,5.73,6.16V47.08z M329.38,32.77
		c-8.42,0-14.93,6.32-14.93,14.23v0.08c0,7.92,6.43,14.15,14.86,14.15c8.42,0,14.93-6.32,14.93-14.23v-0.08
		C344.24,39.01,337.81,32.77,329.38,32.77 M250.87,53.16h-13.81v-0.69c0,0,0,0,0,0v-1.58c0,0,0,0,0,0V50.2h12.64
		c0.38,0,0.69-0.31,0.69-0.69V44.3c0-0.38-0.31-0.69-0.69-0.69h-12.64v-0.69v0v-1.39v0v-0.69h13.62c0.38,0,0.69-0.31,0.69-0.69v-6.1
		c0-0.38-0.31-0.69-0.69-0.69h-21.9c-0.38,0-0.69,0.31-0.69,0.69v25.91c0,0.38,0.31,0.69,0.69,0.69h22.09
		c0.38,0,0.69-0.31,0.69-0.69v-6.1C251.56,53.47,251.25,53.16,250.87,53.16 M396.46,52.85h-12.14V34.04c0-0.38-0.31-0.69-0.69-0.69
		h-7.74c-0.38,0-0.69,0.31-0.69,0.69v25.91c0,0.38,0.31,0.69,0.69,0.69h20.57c0.38,0,0.69-0.31,0.69-0.69v-6.42
		C397.15,53.16,396.84,52.85,396.46,52.85 M314.71,33.35h-7.93c-0.31,0-0.58,0.2-0.66,0.5l-3.09,10.5
		c-0.19,0.65-1.11,0.66-1.32,0.02l-3.55-10.62c-0.09-0.28-0.36-0.47-0.66-0.47h-6.88c-0.3,0-0.56,0.19-0.65,0.47l-3.55,10.62
		c-0.21,0.64-1.13,0.63-1.32-0.02L282,33.85c-0.09-0.29-0.36-0.5-0.66-0.5h-8.08c-0.47,0-0.8,0.46-0.66,0.9l8.48,26.11
		c0.09,0.29,0.36,0.48,0.66,0.48h6.96c0.29,0,0.55-0.18,0.65-0.46l3.98-11.26c0.22-0.62,1.09-0.62,1.3,0l3.98,11.26
		c0.1,0.28,0.36,0.46,0.65,0.46h6.96c0.3,0,0.57-0.19,0.66-0.48l8.48-26.11C315.51,33.81,315.18,33.35,314.71,33.35 M139.16,33.35
		h-7.74c-0.38,0-0.69,0.31-0.69,0.69v8.94h-8.34v-8.94c0-0.38-0.31-0.69-0.69-0.69h-7.74c-0.38,0-0.69,0.31-0.69,0.69v25.91
		c0,0.38,0.31,0.69,0.69,0.69h7.74c0.38,0,0.69-0.31,0.69-0.69v-9.09h8.34v9.09c0,0.38,0.31,0.69,0.69,0.69h7.74
		c0.38,0,0.69-0.31,0.69-0.69V34.04C139.85,33.66,139.54,33.35,139.16,33.35 M416.84,47.04c0,3.94-2.69,5.65-6.86,5.65h-1.52V41.31
		h1.52c4.17,0,6.86,1.72,6.86,5.65V47.04z M409.78,33.35h-9.76c-0.38,0-0.69,0.31-0.69,0.69v25.91c0,0.38,0.31,0.69,0.69,0.69h9.45
		c11.04,0,16.57-5.73,16.57-13.8v-0.08C426.04,38.7,420.62,33.35,409.78,33.35 M186.95,43.02c-2.89-0.55-3.63-1.01-3.63-1.75v-0.08
		c0-0.66,0.62-1.13,1.99-1.13c2.36,0,5.2,0.71,7.66,2.32c0.31,0.2,0.72,0.12,0.93-0.18l3.65-5.07c0.23-0.31,0.15-0.75-0.17-0.97
		c-3.06-2.21-6.8-3.32-11.76-3.32c-7.53,0-11.58,4.02-11.58,9.2v0.08c0,5.77,5.38,7.53,11.5,8.77c2.92,0.59,3.78,1.01,3.78,1.79
		v0.08c0,0.74-0.7,1.17-2.34,1.17c-3.02,0-6.21-0.83-9.05-2.83c-0.29-0.2-0.69-0.14-0.92,0.13l-4.01,4.78
		c-0.25,0.3-0.2,0.75,0.1,0.99c3.44,2.74,8.2,4.14,13.45,4.14c7.33,0,12.05-3.51,12.05-9.24v-0.08
		C198.61,46.34,193.93,44.31,186.95,43.02 M224.55,33.35h-23.81c-0.38,0-0.69,0.31-0.69,0.69v6.34c0,0.38,0.31,0.69,0.69,0.69h7.34
		v18.88c0,0.38,0.31,0.69,0.69,0.69h7.74c0.38,0,0.69-0.31,0.69-0.69V41.07h7.34c0.38,0,0.69-0.31,0.69-0.69v-6.34
		C225.24,33.66,224.93,33.35,224.55,33.35 M162.93,47.08c0,3.2-2.18,6.08-5.65,6.08c-3.51,0-5.73-2.92-5.73-6.16v-0.08
		c0-3.2,2.18-6.08,5.65-6.08c3.51,0,5.73,2.92,5.73,6.16V47.08z M157.28,32.77c-8.42,0-14.93,6.32-14.93,14.23v0.08
		c0,7.92,6.43,14.15,14.86,14.15c8.42,0,14.93-6.32,14.93-14.23v-0.08C172.14,39.01,165.7,32.77,157.28,32.77"/>
	<path fill="#F25621" d="M94,80.92C94,88.15,88.15,94,80.92,94H13.08C5.85,94,0,88.15,0,80.92V13.08C0,5.85,5.85,0,13.08,0h67.85
		C88.15,0,94,5.85,94,13.08V80.92z"/>
	<path fill="#FFFFFF" d="M77.77,14.95h-18.8c-0.7,0-1.26,0.57-1.26,1.26v16.81h2.1c0.3,0.02,0.54,0.26,0.54,0.57
		c0,0.13-0.05,0.24-0.12,0.34L48.18,46.2c-0.19,0.23-0.29,0.52-0.29,0.8c0,0.29,0.1,0.57,0.29,0.8l12.04,12.27
		c0.07,0.1,0.12,0.21,0.12,0.34c0,0.31-0.24,0.55-0.54,0.57h-2.1v16.81c0,0.7,0.57,1.26,1.26,1.26h18.8c0.7,0,1.26-0.57,1.26-1.26
		V16.21C79.04,15.51,78.47,14.95,77.77,14.95 M33.89,34L33.89,34c-0.1-0.11-0.17-0.25-0.17-0.41c0-0.31,0.24-0.55,0.54-0.57h2.08
		V16.21c0-0.7-0.57-1.26-1.26-1.26H16.22c-0.7,0-1.26,0.57-1.26,1.26v61.58c0,0.7,0.57,1.26,1.26,1.26h18.85
		c0.7,0,1.26-0.57,1.26-1.26V60.98h-2.08c-0.3-0.02-0.54-0.26-0.54-0.57c0-0.16,0.06-0.3,0.17-0.41l0,0l11.98-12.2
		c0.19-0.23,0.29-0.51,0.29-0.8c0-0.28-0.09-0.57-0.29-0.8L33.89,34z"/>
</g>
</svg>
